<svg width="375" height="2502" viewBox="0 0 375 2502" fill="none" xmlns="http://www.w3.org/2000/svg">
<path d="M0 0H375V2502H0V0Z" fill="url(#paint0_linear_56_1210)"/>
<mask id="mask0_56_1210" style="mask-type:alpha" maskUnits="userSpaceOnUse" x="0" y="0" width="375" height="2502">
<path d="M0 0H375V2502H0V0Z" fill="url(#paint1_linear_56_1210)"/>
</mask>
<g mask="url(#mask0_56_1210)">
<path d="M-480.04 899.996C-592.725 1045.45 -539.017 1368.05 -498.077 1511.17C-371.239 1949.47 -329.289 1546.04 -133.71 1970.96C61.8693 2395.87 31.7744 2157.65 363.56 1283.56C695.345 409.477 339.821 220.839 284.374 397.586C228.927 574.332 156.115 435.986 77.1807 70.8582C-1.754 -294.27 -279.175 114.055 -256.328 467.596C-233.482 821.137 -339.183 718.18 -480.04 899.996Z" stroke="#FFF4F6"/>
<path d="M-434.852 914.047C-536.396 1045.3 -488.008 1336.35 -451.12 1465.46C-336.838 1860.87 -299.027 1496.88 -122.802 1880.2C53.4231 2263.52 26.3106 2048.6 325.302 1259.91C624.294 471.22 303.938 301.111 253.97 460.587C204.003 620.064 138.396 495.263 67.277 165.857C-3.84177 -163.549 -253.835 204.913 -233.256 523.877C-212.678 842.842 -307.922 749.977 -434.852 914.047Z" stroke="#FFF4F6"/>
<path d="M-399.836 925.528C-492.706 1045.4 -448.442 1311.27 -414.702 1429.22C-310.169 1790.44 -275.596 1457.96 -114.411 1808.15C46.7745 2158.35 21.972 1962.02 295.411 1241.64C568.849 521.271 275.847 365.806 230.15 511.47C184.454 657.135 124.447 543.118 59.3932 242.2C-5.66026 -58.7175 -234.295 277.8 -215.466 569.169C-196.637 860.537 -283.75 775.686 -399.836 925.528Z" stroke="#FFF4F6"/>
<path d="M-366.591 933.084C-451.248 1042.46 -410.904 1285 -380.15 1392.6C-284.869 1722.11 -253.349 1418.79 -106.426 1738.24C40.4976 2057.69 17.892 1878.59 267.157 1221.36C516.421 564.143 249.337 422.36 207.68 555.254C166.023 688.147 111.325 584.141 52.0307 309.63C-7.26418 35.1197 -215.682 342.152 -198.523 607.958C-181.364 873.764 -260.77 796.369 -366.591 933.084Z" stroke="#FFF4F6"/>
<path d="M-330.652 944.757C-406.413 1042.79 -370.316 1260.13 -342.798 1356.55C-257.541 1651.82 -229.326 1379.99 -97.8555 1666.23C33.6149 1952.46 13.3904 1791.97 236.472 1202.93C459.553 613.9 220.547 486.911 183.266 606.015C145.984 725.118 97.0384 631.927 43.9839 385.941C-9.0705 139.954 -195.589 415.155 -180.241 653.352C-164.893 891.549 -235.95 822.212 -330.652 944.757Z" stroke="#FFF4F6"/>
<path d="M-292.871 957.124C-359.274 1042.94 -327.63 1233.24 -303.508 1317.66C-228.775 1576.2 -204.05 1338.21 -88.8095 1588.85C26.4305 1839.48 8.70038 1698.96 204.219 1183.28C399.738 667.602 190.246 556.371 157.571 660.643C124.896 764.916 81.9936 683.314 35.4861 467.932C-11.0213 252.55 -174.499 493.462 -161.042 702.017C-147.584 910.571 -209.868 849.85 -292.871 957.124Z" stroke="#FFF4F6"/>
</g>
<defs>
<linearGradient id="paint0_linear_56_1210" x1="14.5" y1="2581.5" x2="680.546" y2="2516.42" gradientUnits="userSpaceOnUse">
<stop stop-color="white"/>
<stop offset="1" stop-color="#FFF8F9"/>
</linearGradient>
<linearGradient id="paint1_linear_56_1210" x1="14.5" y1="2581.5" x2="680.546" y2="2516.42" gradientUnits="userSpaceOnUse">
<stop stop-color="white"/>
<stop offset="1" stop-color="#F4F7FF"/>
</linearGradient>
</defs>
</svg>
