<svg width="120" height="29" viewBox="0 0 120 29" fill="none" xmlns="http://www.w3.org/2000/svg">
<path d="M119.794 0H88.9741V0.837385H119.794V0Z" fill="#F50022"/>
<path d="M119.794 1.38672H88.9741V2.2241H119.794V1.38672Z" fill="#F50022"/>
<path d="M119.794 2.77393H88.9741V3.61131H119.794V2.77393Z" fill="#F50022"/>
<path d="M119.794 4.16138H88.9741V4.99876H119.794V4.16138Z" fill="#F50022"/>
<path d="M119.794 5.5481H88.9741V6.38548H119.794V5.5481Z" fill="#F50022"/>
<path d="M119.794 6.93481H88.9741V7.7722H119.794V6.93481Z" fill="#F50022"/>
<path d="M119.794 8.32178H88.9741V9.15916H119.794V8.32178Z" fill="#F50022"/>
<path d="M119.794 9.7085H84.9497V10.5459H119.794V9.7085Z" fill="#F50022"/>
<path d="M119.794 11.0957H84.9497V11.8916H119.794V11.0957Z" fill="#F50022"/>
<path d="M119.794 12.4827H84.9497V13.3201H119.794V12.4827Z" fill="#F50022"/>
<path d="M119.794 13.8694H84.9497V14.7068H119.794V13.8694Z" fill="#F50022"/>
<path d="M119.794 15.2566H84.9497V16.094H119.794V15.2566Z" fill="#F50022"/>
<path d="M119.794 16.7397H84.9497V17.4806H119.794V16.7397Z" fill="#F50022"/>
<path d="M119.794 18.0303H84.9497V18.8677H119.794V18.0303Z" fill="#F50022"/>
<path d="M119.794 19.417H67.1729V20.2544H119.794V19.417Z" fill="#F50022"/>
<path d="M119.794 20.8042H67.1729V21.6416H119.794V20.8042Z" fill="#F50022"/>
<path d="M119.794 22.1912H67.1729V23.0285H119.794V22.1912Z" fill="#F50022"/>
<path d="M119.794 23.5779H67.1729V24.4153H119.794V23.5779Z" fill="#F50022"/>
<path d="M119.794 24.9646H67.1729V25.802H119.794V24.9646Z" fill="#F50022"/>
<path d="M119.794 26.3521H67.1729V27.1894H119.794V26.3521Z" fill="#F50022"/>
<path d="M119.794 27.7388H67.1729V28.5762H119.794V27.7388Z" fill="#F50022"/>
<path d="M69.4553 7.96501H68.0269V0.54248H69.4047L72.4762 5.28336V0.54248H73.8996V7.96501H72.5526L69.4559 3.08102V7.96501H69.4553Z" fill="#F50022"/>
<path d="M79.1541 7.96501H75.144V0.54248H79.1541V1.84739H76.5826V3.54012H79.1541V4.82482H76.5826V6.66011H79.1541V7.96501Z" fill="#F50022"/>
<path d="M79.5933 0.54248H81.0779L82.3024 5.35464L83.6494 0.54248H84.6543L86.0013 5.35464L87.2208 0.54248H88.7054L86.5523 7.96501H85.3941L84.1493 3.33133L82.8945 7.96501H81.7463L79.5933 0.54248Z" fill="#F50022"/>
<path d="M89.3491 5.66067L90.6759 5.65562V5.76281C90.6759 6.07543 90.7573 6.32631 90.9208 6.51489C91.0843 6.70347 91.3016 6.79776 91.5741 6.79776C91.8667 6.79776 92.0976 6.7102 92.2678 6.53509C92.438 6.35998 92.5228 6.12314 92.5228 5.82399C92.5228 5.34468 92.179 5.00176 91.4921 4.7941C91.4033 4.76716 91.3342 4.74471 91.2831 4.72787C90.7045 4.54771 90.2765 4.29234 89.9973 3.96064C89.7182 3.6295 89.5789 3.21025 89.5789 2.704C89.5789 2.00749 89.7721 1.44849 90.158 1.02699C90.5439 0.605488 91.0584 0.39502 91.7016 0.39502C92.3037 0.39502 92.7834 0.583038 93.1401 0.958515C93.4974 1.33399 93.6962 1.85988 93.7372 2.53619H92.4211V2.47501C92.4211 2.23704 92.3498 2.04509 92.2066 1.89917C92.0639 1.75324 91.8768 1.68028 91.6454 1.68028C91.414 1.68028 91.2191 1.75493 91.0814 1.90422C90.9438 2.05407 90.8747 2.25781 90.8747 2.51598C90.8747 2.62487 90.8893 2.72084 90.918 2.8039C90.9466 2.88753 90.9921 2.96274 91.0534 3.03065C91.1927 3.18331 91.4921 3.32474 91.9515 3.45383C92.1554 3.50827 92.3122 3.5543 92.4211 3.59134C92.9312 3.76476 93.3081 4.01284 93.5513 4.33556C93.7945 4.65827 93.9159 5.07135 93.9159 5.57423C93.9159 6.33922 93.703 6.95323 93.2783 7.41738C92.8531 7.88153 92.2886 8.11333 91.5842 8.11333C90.9208 8.11333 90.3849 7.88939 89.9771 7.44039C89.5688 6.99195 89.3598 6.39871 89.3497 5.66123L89.3491 5.66067Z" fill="white"/>
<path d="M69.1032 16.4416L68.5269 17.9963H67.0215L69.9042 10.5737H71.1591L74.0008 17.9963H72.4448L71.8578 16.4416H69.1026H69.1032ZM71.3787 15.0654L70.5013 12.6745L69.6031 15.0654H71.3787Z" fill="#F50022"/>
<path d="M75.7712 17.9963H74.3169V10.5737H76.0824C76.6435 10.5737 77.0609 10.5934 77.335 10.6321C77.6085 10.6714 77.8428 10.7348 78.0366 10.8235C78.4584 11.0205 78.7797 11.2961 79.001 11.6491C79.2223 12.0027 79.3324 12.4169 79.3324 12.8928C79.3324 13.467 79.174 13.9541 78.8578 14.3532C78.5415 14.7528 78.1113 15.0065 77.567 15.1154L79.424 17.9957H77.6894L75.7712 14.5496V17.9957V17.9963ZM75.7712 14.1831H76.0925C76.6806 14.1831 77.1271 14.0771 77.4316 13.8643C77.736 13.6522 77.8883 13.3418 77.8883 12.9338C77.8883 12.5258 77.7608 12.2491 77.5057 12.0622C77.2507 11.8753 76.8525 11.7821 76.3121 11.7821H75.7712V14.1831Z" fill="#F50022"/>
<path d="M84.2718 17.9963H80.2617V10.5737H84.2718V11.8786H81.7003V13.5714H84.2718V14.8561H81.7003V16.6914H84.2718V17.9963Z" fill="#F50022"/>
<path d="M86.9148 17.9963H85.4863V10.5737H86.8642L89.9357 15.3146V10.5737H91.3591V17.9963H90.0121L86.9153 13.1123V17.9963H86.9148Z" fill="white"/>
<path d="M93.6803 16.4416L93.104 17.9963H91.5986L94.4813 10.5737H95.7362L98.5779 17.9963H97.022L96.435 16.4416H93.6803ZM95.9558 15.0654L95.0784 12.6745L94.1803 15.0654H95.9558Z" fill="white"/>
<path d="M67.4136 28.028V20.6055H68.8679V28.028H67.4136Z" fill="white"/>
<path d="M72.1594 28.028H70.731V20.6055H72.1088L75.1803 25.3463V20.6055H76.6037V28.028H75.2567L72.16 23.144V28.028H72.1594Z" fill="white"/>
<path d="M80.3736 28.028H77.8481V20.6055H80.3332C81.0067 20.6055 81.5459 20.6734 81.9503 20.8092C82.3553 20.945 82.7227 21.1729 83.0524 21.4922C83.4029 21.8318 83.6681 22.2432 83.8484 22.7259C84.0287 23.2085 84.1186 23.7507 84.1186 24.3518C84.1186 25.0248 83.9927 25.627 83.7411 26.159C83.4894 26.6911 83.1238 27.1283 82.6441 27.4718C82.3716 27.6722 82.0677 27.8147 81.7307 27.9C81.3942 27.9853 80.9415 28.0274 80.3736 28.0274V28.028ZM80.2821 26.7534C81.0881 26.7534 81.6818 26.5564 82.0627 26.1618C82.4435 25.7678 82.634 25.151 82.634 24.3114C82.634 23.5397 82.4256 22.9403 82.0088 22.512C81.592 22.0838 81.0095 21.87 80.2613 21.87H79.3125V26.754H80.2821V26.7534Z" fill="white"/>
<path d="M85.0166 28.028V20.6055H86.4709V28.028H85.0166Z" fill="white"/>
<path d="M88.7873 26.4733L88.211 28.028H86.7056L89.5883 20.6055H90.8431L93.6849 28.028H92.1289L91.5419 26.4733H88.7867H88.7873ZM91.0628 25.0972L90.1854 22.7062L89.2872 25.0972H91.0628Z" fill="white"/>
<path d="M19.5207 28.5707L6.04292 10.8936V28.5707H0V0.76416H5.64523L18.6854 17.8851V0.76416H24.7283V28.5713H19.5201L19.5207 28.5707Z" fill="#F50022"/>
<path d="M49.1398 28.5708L46.5953 22.3341H34.8273L32.2828 28.5708H26.041L37.9679 0.564941H43.6131L55.5406 28.5708H49.1398ZM40.7113 7.91395L37.0141 16.9316H44.4091L40.7119 7.91395H40.7113Z" fill="#F50022"/>
<path d="M56.4946 28.5704V0.200928H62.5375V28.5704H56.4946Z" fill="#F50022"/>
</svg>
